<?xml version="1.0" standalone="no"?>
<!DOCTYPE svg PUBLIC "-//W3C//DTD SVG 20010904//EN"
 "http://www.w3.org/TR/2001/REC-SVG-20010904/DTD/svg10.dtd">
<svg version="1.0" xmlns="http://www.w3.org/2000/svg"
 width="960.000000pt" height="960.000000pt" viewBox="0 0 960.000000 960.000000"
 preserveAspectRatio="xMidYMid meet">

<g transform="translate(0.000000,960.000000) scale(0.100000,-0.100000)"
fill="#000000" stroke="none">
<path d="M4715 9428 c-112 -12 -169 -31 -173 -55 -3 -22 30 -49 47 -38 5 3 11
1 13 -4 1 -5 39 -18 83 -30 44 -11 105 -28 135 -37 30 -9 73 -21 95 -27 22 -6
52 -19 67 -30 14 -11 31 -16 37 -13 6 4 11 2 11 -4 0 -6 4 -9 9 -5 10 5 27
-13 19 -20 -2 -2 -31 2 -63 10 -33 7 -81 13 -107 13 -26 0 -51 3 -56 6 -19 11
-284 27 -532 31 -140 3 -291 8 -335 11 -229 16 -373 18 -453 7 -250 -37 -452
-127 -452 -203 0 -33 23 -54 50 -47 11 3 18 1 14 -4 -3 -5 -13 -9 -23 -9 -9 0
-26 -7 -37 -15 -10 -8 -27 -15 -37 -15 -9 0 -34 -9 -54 -20 -21 -11 -44 -20
-51 -20 -7 0 -22 -9 -34 -20 -12 -11 -28 -20 -35 -20 -8 0 -39 -16 -69 -35
-30 -19 -58 -35 -63 -35 -5 0 -11 -7 -15 -15 -3 -8 -12 -15 -21 -15 -8 0 -15
-4 -15 -8 0 -4 -14 -16 -31 -26 -26 -15 -62 -47 -153 -133 -58 -56 -96 -141
-96 -217 0 -31 3 -37 16 -32 14 5 15 4 4 -8 -10 -13 -8 -20 9 -42 12 -15 21
-33 21 -41 0 -18 19 -13 120 34 93 42 259 121 282 134 10 5 25 9 33 9 9 0 18
7 21 15 4 8 10 12 15 9 5 -3 25 3 44 12 55 26 51 11 -5 -20 -27 -15 -50 -31
-50 -36 0 -5 -6 -7 -14 -4 -9 3 -20 -3 -28 -15 -7 -12 -18 -21 -24 -21 -6 0
-26 -13 -44 -30 -18 -16 -36 -30 -40 -30 -6 0 -120 -108 -120 -114 0 -3 -17
-22 -39 -43 -21 -21 -46 -53 -55 -70 -9 -18 -20 -33 -24 -33 -4 0 -15 -19 -26
-43 -10 -23 -23 -52 -28 -64 -6 -11 -7 -27 -3 -34 5 -7 4 -10 -2 -6 -31 19
-54 -266 -24 -296 6 -6 11 -17 11 -23 0 -20 57 -99 95 -133 19 -17 35 -36 35
-42 0 -6 -16 -27 -35 -45 -46 -43 -56 -87 -25 -104 25 -13 118 -9 129 6 10 14
111 65 111 56 0 -5 -13 -21 -29 -36 -16 -15 -39 -48 -51 -74 -12 -26 -27 -55
-32 -66 -5 -10 -12 -30 -14 -43 -3 -14 -11 -50 -19 -81 -17 -63 -19 -119 -6
-174 5 -22 5 -38 0 -38 -5 0 -9 -11 -9 -24 0 -14 -4 -27 -9 -30 -5 -3 -11 -23
-14 -43 -12 -92 -31 -179 -41 -185 -6 -4 -11 -26 -12 -50 -1 -24 -4 -50 -7
-58 -10 -28 -18 -104 -19 -191 l-2 -86 -47 1 c-26 1 -55 -4 -65 -11 -10 -7
-14 -13 -8 -13 5 0 5 -3 -1 -8 -10 -7 -45 -66 -45 -76 0 -3 8 -3 18 1 14 5 14
3 -2 -9 -17 -14 -19 -21 -10 -64 7 -40 13 -49 34 -54 21 -5 22 -7 8 -13 -27
-10 -22 -26 7 -23 29 4 28 1 -37 -77 -26 -32 -48 -62 -48 -68 0 -5 -11 -26
-24 -47 -22 -33 -56 -130 -61 -172 -1 -8 -4 -22 -7 -30 -23 -57 -30 -103 -27
-193 2 -56 8 -108 13 -116 6 -8 10 -17 9 -20 -12 -30 91 -210 121 -211 4 0 17
-12 28 -26 15 -18 28 -24 44 -21 13 2 24 0 24 -6 0 -6 18 -32 39 -57 39 -46
44 -73 21 -105 -5 -5 -20 -57 -35 -115 -14 -58 -30 -113 -36 -123 -5 -10 -12
-38 -14 -62 -3 -24 -10 -65 -16 -92 -18 -75 -57 -320 -64 -403 -2 -25 -8 -79
-13 -120 -6 -41 -9 -112 -8 -158 0 -45 -2 -82 -6 -82 -12 0 -9 -98 2 -105 6
-4 5 -11 -3 -19 -9 -9 -12 -39 -10 -102 2 -49 4 -127 4 -174 0 -46 7 -141 15
-210 9 -69 17 -138 19 -155 1 -16 4 -32 5 -35 1 -3 1 -15 1 -27 -1 -11 3 -24
8 -28 6 -3 11 -19 11 -36 0 -16 5 -29 13 -29 8 0 8 -3 -2 -9 -12 -8 -12 -12
-2 -25 7 -8 10 -20 7 -25 -4 -6 0 -27 9 -47 8 -20 15 -47 15 -60 0 -14 4 -32
9 -42 14 -25 25 -55 26 -72 1 -8 3 -21 4 -28 0 -7 5 -10 11 -7 6 4 10 -10 10
-36 0 -39 9 -78 30 -134 5 -11 18 -58 30 -105 26 -97 40 -146 50 -175 5 -13
-3 -33 -24 -65 -49 -72 -107 -173 -168 -295 -16 -33 -34 -68 -39 -77 -5 -10
-9 -26 -9 -36 0 -10 -5 -23 -11 -29 -24 -24 -63 -105 -89 -184 -10 -31 -28
-75 -39 -98 -12 -22 -23 -53 -25 -68 -3 -27 -15 -64 -35 -108 -5 -11 -12 -31
-15 -45 -3 -14 -12 -54 -21 -90 -8 -36 -18 -78 -20 -95 -13 -78 -18 -123 -19
-162 -1 -22 -5 -39 -9 -36 -4 2 -5 -6 -2 -20 4 -14 2 -28 -4 -31 -8 -5 -6 -17
3 -41 12 -29 12 -35 0 -45 -9 -8 -13 -28 -11 -57 2 -24 -1 -47 -5 -49 -13 -8
-9 -72 4 -78 10 -5 10 -7 1 -12 -9 -4 -10 -11 -2 -25 5 -11 7 -25 2 -32 -12
-19 -12 -50 0 -85 l11 -32 673 0 c531 0 673 3 674 13 1 6 3 30 6 52 3 22 5 52
6 67 1 16 4 28 8 28 3 0 5 10 5 23 0 28 12 77 25 100 6 10 7 27 4 38 -4 11 -2
19 4 19 6 0 11 7 11 15 0 23 24 95 31 95 4 0 6 13 5 30 -1 17 4 32 11 34 7 3
13 14 13 25 0 11 4 22 9 25 5 3 7 15 4 26 -3 11 0 20 6 20 6 0 11 11 11 25 0
14 5 25 10 25 6 0 10 9 10 19 0 11 5 23 10 26 6 4 8 10 5 15 -3 5 -1 11 5 15
5 3 10 17 10 31 0 13 4 24 10 24 5 0 7 7 4 15 -4 8 -1 15 5 15 6 0 11 9 11 19
0 11 4 23 10 26 5 3 10 14 10 24 0 10 7 31 15 48 8 17 17 43 19 59 2 16 9 42
15 59 7 16 11 41 9 55 -1 14 1 30 5 36 12 20 19 172 8 178 -6 4 -7 16 -3 27 7
18 -1 95 -22 224 -3 17 -7 57 -10 90 -3 33 -7 69 -10 80 -12 50 -15 85 -6 85
5 0 11 -12 13 -27 3 -18 4 -16 2 7 -1 22 4 40 14 48 14 11 14 12 0 7 -18 -7
-38 30 -32 60 2 11 4 47 5 80 1 55 9 74 32 75 4 0 6 -7 3 -14 -4 -10 -1 -13 8
-10 7 3 16 11 18 18 4 10 -5 12 -36 10 -37 -3 -39 -3 -21 11 10 8 16 15 11 15
-4 0 2 18 14 41 11 23 15 38 9 34 -14 -9 -3 41 16 72 8 12 14 30 14 39 0 10 3
14 6 11 4 -4 15 9 25 28 23 43 24 55 3 29 -11 -14 -11 -11 2 13 10 17 20 32
23 31 19 -2 24 4 12 11 -12 8 -12 12 -2 25 8 9 10 16 5 16 -4 0 1 6 12 14 12
10 23 11 31 5 7 -7 14 -6 19 2 4 7 3 9 -3 6 -17 -11 -23 20 -7 33 9 8 14 9 14
2 0 -6 -6 -13 -12 -15 -8 -4 -7 -6 3 -6 19 -1 32 36 15 42 -7 3 -2 13 12 26
12 12 22 28 22 35 0 7 14 25 30 41 17 16 30 35 30 42 0 8 5 11 10 8 6 -3 10 0
10 8 0 8 7 20 16 28 13 10 17 10 25 -2 12 -19 11 -39 -2 -39 -6 0 -9 6 -6 13
3 8 -1 14 -9 14 -7 0 -12 -9 -11 -21 1 -12 -3 -20 -9 -19 -8 1 -10 -6 -6 -19
l5 -22 8 22 c9 24 49 31 49 9 0 -7 9 -30 20 -51 10 -22 17 -43 13 -49 -3 -6
-1 -7 5 -3 7 4 12 1 12 -8 0 -9 9 -25 20 -36 11 -11 20 -26 20 -32 1 -14 34
-58 44 -58 3 0 33 -27 65 -60 33 -33 67 -60 75 -60 9 0 16 -4 16 -9 0 -5 15
-14 33 -22 17 -7 43 -21 56 -31 13 -10 33 -18 45 -18 12 0 26 -4 31 -8 6 -5
37 -15 70 -22 33 -7 74 -16 90 -19 44 -10 289 -2 293 9 2 6 7 8 12 5 5 -3 21
0 36 5 15 6 39 12 53 14 42 5 210 64 289 102 40 18 77 34 82 34 6 0 10 3 10 8
0 4 20 16 45 27 25 11 45 23 45 28 0 4 6 7 13 7 7 0 22 8 33 19 11 10 48 37
82 61 67 45 171 144 173 163 1 7 1 15 0 19 -1 10 50 48 59 43 7 -4 15 -59 29
-199 11 -111 -22 -304 -65 -388 -8 -15 -14 -41 -14 -58 0 -16 -4 -30 -9 -30
-5 0 -13 -10 -16 -22 -4 -13 -26 -63 -49 -113 -104 -219 -146 -324 -146 -362
0 -18 -4 -33 -10 -33 -5 0 -10 -12 -10 -28 0 -15 -9 -44 -20 -65 -14 -26 -16
-37 -8 -37 10 0 10 -2 0 -8 -19 -13 -54 -230 -56 -353 0 -29 -3 -36 -16 -31
-13 5 -13 3 -2 -10 11 -13 15 -118 5 -118 -1 0 -9 12 -16 26 -13 26 -14 26
-20 5 -3 -11 -2 -19 3 -16 4 3 13 -9 20 -26 11 -26 11 -32 -1 -40 -11 -7 -10
-9 6 -9 17 0 17 -2 5 -10 -12 -8 -12 -10 -1 -10 10 0 12 -8 8 -29 -3 -15 -1
-33 6 -40 8 -8 8 -11 0 -11 -7 0 -15 4 -18 10 -3 5 -10 10 -15 10 -5 0 2 -12
15 -26 14 -15 22 -31 19 -36 -4 -6 -10 -5 -15 3 -4 7 -11 10 -15 6 -4 -4 1
-13 11 -21 14 -10 19 -28 21 -77 1 -35 3 -66 4 -69 1 -3 2 -9 1 -14 -1 -5 4
-13 11 -17 9 -6 9 -9 1 -9 -14 0 -13 -42 2 -52 7 -5 7 -8 -1 -8 -12 0 -11 -24
1 -53 4 -9 4 -30 0 -45 -4 -15 -7 -42 -7 -59 0 -19 -5 -33 -11 -33 -8 0 -8 -3
1 -9 14 -9 19 -81 7 -101 -4 -7 -2 -16 5 -20 9 -6 7 -13 -9 -29 -15 -15 -17
-21 -7 -21 9 0 12 -7 9 -20 -5 -20 0 -20 1496 -20 l1501 0 0 29 c0 16 -6 32
-12 34 -10 4 -9 8 2 16 12 9 12 11 -2 16 -9 4 -14 13 -11 21 3 8 0 21 -6 28
-9 11 -9 15 0 18 9 3 8 13 -4 38 -17 37 -70 204 -73 230 -1 8 -7 29 -15 45 -7
17 -13 43 -15 59 -1 16 -8 34 -16 40 -8 6 -13 17 -10 24 2 7 -1 18 -6 25 -6 7
-13 26 -16 42 -8 41 -27 85 -37 85 -5 0 -9 7 -9 16 0 8 -7 22 -15 30 -8 9 -15
26 -15 40 0 13 -4 24 -10 24 -5 0 -10 9 -10 20 0 11 -9 29 -20 40 -11 11 -20
31 -20 44 0 20 -4 23 -22 18 -21 -5 -22 -4 -9 12 10 11 11 20 4 24 -5 4 -13
20 -17 36 -4 16 -16 41 -27 54 -10 14 -19 30 -19 36 0 7 -8 21 -18 32 -10 10
-20 24 -21 29 -11 35 -23 58 -36 71 -8 9 -15 22 -15 30 0 8 -3 14 -8 14 -4 0
-16 17 -27 37 -11 21 -39 66 -62 101 -24 34 -43 66 -43 71 0 4 -11 20 -25 35
-13 15 -30 36 -36 47 -11 22 -41 59 -76 96 -12 12 -24 32 -28 43 -4 11 -11 18
-16 15 -8 -5 -10 -1 -9 20 1 11 -25 33 -32 28 -5 -2 -8 2 -8 10 0 15 -57 77
-72 77 -5 0 -6 4 -3 10 8 13 -234 252 -325 321 -41 31 -86 66 -99 78 -13 12
-30 21 -37 21 -7 0 -17 6 -21 13 -10 15 -69 57 -81 57 -5 0 -17 9 -26 19 -18
20 -225 127 -238 123 -5 -1 -8 2 -8 8 0 5 -8 10 -17 11 -15 0 -15 2 -3 7 19 9
23 42 4 35 -20 -7 -17 7 4 23 9 7 12 14 5 14 -6 0 -14 18 -18 40 -4 22 -10 40
-15 40 -4 0 -8 6 -7 12 1 40 -4 68 -12 63 -6 -3 -8 8 -5 27 3 18 0 47 -7 63
-7 17 -11 34 -10 39 1 6 -4 26 -13 45 -26 64 -29 75 -33 111 -2 19 -10 40 -18
46 -8 6 -12 14 -9 17 4 3 3 14 -1 24 -5 10 -7 24 -6 30 1 8 -5 10 -15 6 -13
-5 -15 -1 -10 23 5 27 -11 94 -27 110 -4 4 -7 17 -7 28 0 27 -32 119 -44 128
-5 3 -9 27 -9 52 1 25 -3 46 -8 46 -5 0 -9 12 -9 28 0 44 -11 72 -29 72 -13 0
-13 2 -2 9 9 6 11 16 5 32 -10 27 -11 35 -13 66 -1 16 -6 21 -16 17 -11 -5
-13 -2 -9 10 3 9 10 16 16 16 5 0 7 4 4 8 -6 10 -18 132 -19 202 -1 31 -7 61
-15 69 -7 7 -10 16 -7 19 3 4 10 0 15 -8 7 -11 10 -3 10 28 0 27 -4 42 -12 42
-7 0 -5 5 5 11 19 11 24 44 5 34 -7 -4 5 8 27 27 73 61 114 109 125 147 6 26
8 26 89 24 46 -1 106 3 134 10 61 13 150 65 143 83 -2 7 4 14 15 17 11 3 19
11 18 19 -1 7 1 20 4 28 14 35 27 98 27 132 0 20 4 39 10 43 5 3 7 12 4 19 -3
8 -1 17 5 20 6 4 8 13 4 21 -3 9 0 21 6 29 19 22 46 353 37 451 -13 147 -20
193 -33 214 -11 17 -12 26 -4 34 6 6 11 19 11 29 0 10 4 18 9 18 11 0 86 151
96 193 4 15 13 27 21 27 9 0 14 11 14 29 0 17 4 32 10 36 5 3 7 12 4 19 -3 7
2 21 11 30 10 9 15 25 12 36 -3 11 -1 20 4 20 13 0 11 34 -3 48 -9 9 -7 12 11
12 20 0 22 4 17 26 -4 15 -3 23 3 20 5 -3 9 4 8 17 0 12 3 42 7 67 13 85 13
90 2 90 -6 0 -5 4 2 9 15 9 20 104 7 134 -4 9 -3 17 2 17 9 0 10 116 1 125 -2
3 -3 27 -2 55 2 27 -1 50 -6 50 -5 0 -6 20 -4 44 5 41 3 45 -23 54 -17 7 -21
11 -10 11 21 1 22 26 2 65 -8 15 -15 35 -15 42 0 8 -5 14 -11 14 -12 0 -2 58
13 77 6 7 8 22 5 32 -3 11 -1 21 4 23 14 5 58 177 64 253 3 39 7 83 9 98 2 16
-4 35 -12 43 -11 12 -12 18 -3 27 16 16 13 27 -6 21 -15 -5 -15 -3 1 10 18 15
19 20 7 83 -11 64 -36 160 -48 193 -4 8 -7 18 -8 23 -2 4 -3 8 -5 10 -1 1 -3
9 -5 17 -5 29 -68 160 -76 160 -4 0 -13 16 -19 35 -6 19 -21 42 -33 50 -12 8
-18 15 -13 15 7 0 -40 71 -81 120 -38 47 -164 160 -177 160 -4 0 -19 11 -34
25 -15 14 -31 25 -37 25 -20 1 -55 49 -55 76 0 49 -38 245 -50 259 -7 8 -9 18
-6 23 8 14 -27 118 -47 142 -9 11 -16 24 -15 28 2 11 -49 131 -61 142 -4 3
-13 19 -21 35 -19 39 -53 89 -63 93 -4 2 -23 28 -43 58 -41 61 -142 146 -195
163 -51 16 -85 6 -98 -30 -8 -24 -5 -41 18 -97 41 -99 64 -141 78 -142 7 0 10
-6 7 -13 -3 -8 0 -26 6 -42 l10 -28 -22 22 c-43 39 -75 66 -98 81 -12 8 -28
21 -36 28 -7 6 -20 12 -28 12 -9 0 -16 5 -16 10 0 6 -6 10 -14 10 -8 0 -16 4
-18 10 -4 13 -111 39 -189 46 -74 7 -131 -6 -167 -39 l-22 -21 -45 32 c-25 18
-49 32 -54 32 -5 0 -14 7 -21 15 -7 8 -18 14 -24 13 -6 -1 -29 6 -51 16 -75
34 -118 46 -137 40 -10 -3 -18 -1 -18 4 0 15 -23 21 -177 43 -144 20 -185 21
-318 7z m382 -264 c-3 -3 -12 -4 -19 -1 -8 3 -5 6 6 6 11 1 17 -2 13 -5z
m-2157 -1432 c50 -2 90 -8 90 -11 0 -3 -20 -15 -43 -25 -23 -11 -68 -37 -99
-58 -31 -21 -59 -38 -63 -38 -11 0 -155 -104 -155 -112 0 -4 -5 -8 -12 -8 -7
0 -25 -12 -40 -27 -15 -15 -28 -21 -28 -15 0 7 3 12 8 12 4 0 20 29 37 65 16
36 33 65 37 65 4 0 8 6 8 13 0 7 16 31 35 53 19 21 35 44 35 50 0 6 12 25 27
41 26 28 29 29 51 15 13 -9 57 -17 112 -20z m2370 -633 c52 -12 103 -25 112
-30 10 -5 26 -9 36 -9 10 0 22 -4 28 -9 5 -4 45 -16 89 -26 44 -10 112 -30
150 -45 39 -15 102 -35 140 -45 39 -11 73 -23 76 -27 3 -5 18 -10 33 -12 15
-1 31 -7 36 -12 10 -11 1 -64 -11 -64 -5 0 -9 -6 -9 -14 0 -8 -3 -16 -7 -18
-14 -6 -55 -136 -60 -190 -3 -29 -6 -98 -6 -153 -1 -102 8 -143 49 -215 21
-39 93 -110 110 -110 6 0 17 -7 24 -15 7 -8 16 -13 20 -10 12 7 20 -36 11 -54
-7 -13 -15 -46 -26 -106 -1 -5 -3 -12 -4 -15 -2 -3 -4 -16 -6 -30 -20 -141
-24 -182 -25 -228 0 -32 -8 -68 -19 -90 -34 -67 -51 -112 -51 -140 0 -17 -3
-22 -8 -15 -5 8 -13 -5 -21 -35 -7 -26 -17 -58 -23 -72 -10 -24 -15 -50 -23
-115 -2 -16 -4 -30 -5 -30 -1 0 -10 -43 -20 -95 -12 -64 -14 -101 -8 -113 6
-12 6 -23 -2 -32 -7 -8 -8 -36 -4 -76 3 -35 7 -81 9 -102 1 -21 5 -41 9 -44 3
-4 6 -20 6 -36 0 -33 50 -190 62 -195 5 -2 8 -10 8 -18 0 -8 5 -14 10 -14 6 0
10 -7 10 -15 0 -8 4 -15 9 -15 5 0 12 -8 15 -17 12 -34 37 -73 46 -73 14 0 33
-42 24 -49 -13 -9 -36 -52 -31 -57 9 -10 35 8 45 32 13 27 43 32 63 8 7 -8 21
-13 31 -11 10 3 18 0 18 -5 0 -7 16 -9 43 -5 35 5 45 3 55 -13 7 -12 8 -20 2
-20 -13 0 -13 -63 0 -76 8 -8 8 -19 0 -38 -16 -43 -1 -289 20 -310 5 -5 6 -16
2 -25 -5 -14 -4 -14 13 -1 17 14 18 14 6 -8 -7 -13 -10 -37 -6 -55 16 -80 38
-163 47 -174 5 -6 8 -17 7 -25 -4 -20 11 -91 23 -105 10 -12 13 -21 41 -136 8
-33 19 -63 25 -69 6 -6 8 -17 4 -26 -4 -11 -1 -14 11 -9 9 3 17 2 17 -3 0 -6
-4 -10 -9 -10 -9 0 6 -70 25 -115 7 -16 10 -33 8 -37 -7 -11 4 -10 27 2 11 6
19 7 19 2 0 -6 -10 -12 -21 -15 -16 -4 -20 -11 -16 -26 7 -30 -4 -26 -33 10
-29 36 -32 40 -84 79 -21 17 -45 30 -52 30 -8 0 -14 4 -14 8 0 5 -12 15 -27
22 -16 8 -36 21 -45 29 -12 9 -18 10 -18 3 0 -20 -16 -13 -27 11 -6 13 -33 34
-60 47 -115 55 -171 78 -208 90 -22 7 -49 16 -61 20 -11 5 -51 11 -87 15 -37
4 -70 12 -73 17 -3 5 -15 6 -26 2 -13 -4 -18 -2 -14 5 4 6 8 95 10 199 2 134
7 198 17 221 8 17 17 31 21 31 9 0 42 34 93 95 22 26 45 53 51 59 6 7 15 22
18 34 4 12 11 22 16 22 12 0 41 56 33 64 -4 3 0 6 8 6 17 0 59 68 59 94 0 9 5
16 10 16 6 0 10 7 10 15 0 35 -32 10 -87 -67 -32 -46 -73 -97 -90 -115 -18
-17 -33 -36 -33 -42 0 -6 -6 -11 -12 -12 -7 0 -29 -20 -48 -44 -19 -24 -39
-44 -45 -45 -5 0 -33 -22 -60 -48 -28 -26 -66 -58 -85 -71 -19 -13 -39 -29
-45 -35 -12 -13 -92 -66 -100 -66 -6 0 -24 -13 -56 -42 -10 -10 -26 -18 -34
-18 -8 0 -15 -6 -15 -14 0 -8 -8 -14 -17 -14 -10 1 -47 -18 -83 -41 l-65 -42
-13 43 c-6 24 -19 57 -27 75 -8 17 -15 36 -15 42 0 6 -4 11 -10 11 -5 0 -10 9
-10 20 0 11 -4 20 -10 20 -9 0 4 -52 29 -115 7 -16 12 -32 12 -35 -2 -12 12
-46 21 -51 10 -6 -54 -49 -73 -49 -5 0 -27 -9 -49 -20 -55 -28 -63 -26 -84 23
-13 28 -21 36 -23 25 -2 -9 3 -31 12 -48 9 -18 15 -33 13 -35 -7 -5 -74 -33
-93 -38 -11 -3 -35 -10 -53 -16 -18 -5 -30 -6 -27 -1 2 4 -2 13 -10 20 -8 7
-15 23 -15 36 0 13 -4 24 -8 24 -5 0 -16 26 -26 58 -9 31 -26 68 -36 82 -19
25 -20 25 -20 3 0 -12 4 -25 10 -28 5 -3 14 -25 20 -48 6 -23 22 -66 36 -95
13 -29 24 -57 24 -63 0 -14 -45 -29 -89 -29 -20 0 -42 -5 -49 -12 -9 -9 -16
-2 -29 28 -9 21 -17 41 -18 44 -1 3 -7 19 -14 35 -7 17 -19 46 -26 65 -7 19
-20 48 -28 64 -9 16 -14 33 -11 38 3 4 1 8 -5 8 -18 0 -20 -15 -7 -45 7 -17
21 -57 31 -90 9 -33 28 -80 41 -105 13 -24 20 -48 15 -53 -4 -4 -34 -11 -65
-14 -35 -4 -60 -11 -63 -20 -6 -16 -66 59 -78 97 -4 14 -11 30 -15 35 -4 6
-10 27 -14 48 -7 36 -26 53 -26 22 0 -20 48 -147 60 -159 6 -6 10 -18 10 -28
0 -16 -9 -18 -74 -18 -66 0 -75 2 -81 20 -3 11 -11 20 -16 20 -5 0 -9 7 -9 15
0 8 -4 15 -10 15 -13 0 -13 -16 1 -42 8 -14 8 -23 0 -31 -6 -6 -11 -7 -11 -2
0 14 -73 14 -82 1 -6 -8 -8 -8 -8 1 0 7 -29 14 -77 18 -141 12 -366 75 -478
133 -181 93 -197 102 -208 120 -4 6 -13 12 -18 12 -6 0 -16 6 -23 12 -39 38
-77 68 -86 68 -5 0 -10 5 -10 10 0 6 -7 10 -15 10 -8 0 -15 7 -15 15 0 20 -9
19 -34 -3 -21 -17 -21 -17 -4 3 17 20 15 23 -47 87 -35 36 -76 84 -90 107 -15
23 -32 41 -36 41 -5 0 -9 7 -9 15 0 8 -9 24 -20 35 -11 11 -20 25 -20 30 0 12
-68 122 -80 130 -4 3 -16 32 -27 65 -35 104 -55 159 -69 190 -7 17 -19 51 -25
77 -6 26 -15 46 -19 43 -4 -2 -5 6 -3 19 3 13 -2 51 -11 85 -9 35 -16 76 -16
92 0 16 -3 29 -7 29 -5 0 -9 10 -9 23 -1 12 -5 104 -9 204 -9 224 -3 259 39
217 9 -8 21 -12 27 -8 8 4 9 3 5 -4 -4 -8 3 -16 18 -22 14 -5 26 -14 26 -19 0
-13 28 -3 33 12 2 7 3 4 2 -5 -2 -10 1 -21 6 -24 5 -3 9 1 9 8 0 8 5 6 11 -5
8 -13 14 -15 29 -7 26 14 33 13 26 -5 -3 -9 0 -15 9 -15 8 0 15 6 15 13 1 8 4
7 13 -3 7 -8 21 -15 32 -16 67 -3 130 -15 137 -26 6 -10 8 -10 8 0 0 10 4 10
20 0 15 -10 27 -10 49 -1 19 7 31 7 33 1 2 -6 13 -5 30 1 15 6 29 7 32 3 5 -9
43 -8 119 2 49 7 57 11 57 29 0 16 3 18 11 10 12 -12 42 -6 35 6 -3 4 -1 12 2
18 4 7 7 -23 7 -65 0 -90 16 -130 79 -194 60 -62 153 -105 246 -114 107 -10
181 -7 194 6 8 9 7 11 -4 9 -8 -1 -22 0 -30 3 -8 3 -53 18 -100 33 -150 48
-225 92 -272 161 -30 45 -38 113 -18 156 12 24 78 77 97 78 5 1 26 9 48 20 22
11 47 19 56 20 33 0 199 91 221 121 12 16 27 29 33 29 12 0 48 63 48 85 0 8 3
12 7 10 4 -2 13 8 20 23 7 15 16 35 21 44 5 10 9 27 9 37 0 11 5 23 11 26 6 4
8 14 5 22 -4 9 -2 21 4 27 5 7 12 62 16 122 6 92 4 111 -9 122 -16 14 -14 21
-46 -183 -14 -91 -40 -181 -68 -231 -25 -45 -37 -53 -48 -33 -11 16 4 59 20
59 9 0 12 8 10 20 -2 11 0 18 5 15 10 -6 20 38 19 85 -1 19 3 47 9 61 6 15 8
30 4 34 -3 3 0 10 8 15 11 7 11 11 1 24 -8 9 -9 16 -5 16 5 0 10 17 11 38 4
153 7 163 42 178 48 20 84 18 101 -7 8 -12 23 -30 34 -40 14 -14 17 -25 11
-59 -5 -31 -4 -45 6 -51 12 -7 12 -11 1 -17 -21 -14 -31 -114 -28 -287 2 -146
12 -211 36 -235 3 -3 6 -14 8 -25 4 -30 6 -36 32 -85 12 -25 31 -52 41 -61 11
-9 19 -21 19 -26 0 -5 14 -22 30 -38 17 -16 30 -25 30 -20 0 5 7 0 15 -11 9
-10 14 -13 13 -5 -2 7 2 15 9 18 7 3 9 -3 6 -16 -4 -15 -1 -21 11 -21 9 0 16
-7 16 -16 0 -8 4 -12 10 -9 5 3 20 -3 32 -14 12 -12 27 -20 32 -19 10 1 34 -8
92 -34 11 -5 27 -9 35 -8 27 4 40 0 33 -11 -4 -7 0 -9 14 -5 11 4 23 2 27 -4
3 -6 10 -8 15 -5 5 3 12 0 15 -5 4 -7 19 -8 37 -5 20 5 33 3 38 -5 6 -9 13 -9
29 -1 16 9 21 9 21 -1 0 -17 165 -24 175 -8 3 5 11 10 16 10 6 0 7 -5 3 -11
-4 -8 0 -9 15 -4 13 4 21 2 21 -6 0 -8 3 -9 13 0 8 6 16 8 20 5 3 -3 23 0 44
7 21 7 47 13 57 14 11 1 22 7 24 13 2 7 13 10 27 6 12 -3 26 -1 29 5 4 6 18
11 32 11 13 0 24 4 24 8 0 5 19 15 43 22 57 19 99 45 89 56 -4 5 -3 6 2 2 9
-8 96 50 96 64 0 4 5 8 11 8 11 0 69 60 69 71 0 4 -6 10 -12 13 -9 4 -8 5 2 5
31 -2 40 1 40 16 0 8 9 19 21 25 19 11 19 13 5 29 -20 22 -21 37 -1 21 9 -7
17 -11 19 -9 16 17 67 134 69 158 1 17 6 31 10 31 5 0 5 4 2 10 -3 5 2 21 11
35 13 21 15 31 6 50 -9 20 -9 23 4 18 12 -4 13 -1 4 21 -7 21 -7 28 4 32 11 4
12 13 6 35 -5 16 -5 31 1 34 5 4 8 29 6 58 -2 48 0 52 20 53 14 1 20 -2 16 -9
-3 -6 -1 -7 5 -3 7 4 12 18 12 31 0 15 7 26 20 30 23 7 25 16 8 33 -9 9 -9 12
0 12 16 0 15 27 0 33 -7 2 -5 3 5 2 12 -2 17 4 17 22 0 38 -29 93 -46 86 -9
-3 -14 0 -12 8 2 9 -15 16 -51 21 -30 5 -74 15 -98 23 -25 9 -48 13 -53 10 -5
-3 -11 1 -13 7 -4 10 -8 10 -15 -1 -8 -11 -11 -11 -18 1 -5 8 -38 21 -74 30
-36 9 -73 19 -82 23 -12 5 -18 3 -18 -6 0 -11 -2 -11 -8 -2 -7 11 -28 16 -120
27 -13 2 -28 10 -35 19 -7 8 -34 31 -61 51 -37 28 -51 34 -57 24 -6 -9 -9 -6
-9 10 0 21 -25 38 -46 32 -4 -1 -10 3 -13 8 -20 31 -182 81 -283 87 -35 2 -95
7 -134 11 -66 6 -74 5 -115 -21 -24 -15 -46 -29 -47 -31 -2 -1 11 -25 29 -53
22 -34 36 -46 41 -38 4 7 8 7 8 2 0 -7 48 -11 133 -10 133 0 276 -20 289 -39
11 -16 9 -28 -3 -20 -21 13 -116 18 -344 19 -220 0 -352 -12 -397 -36 -10 -5
-29 -9 -42 -9 -14 0 -27 -4 -30 -8 -5 -9 -181 9 -273 28 -29 6 -57 9 -63 5 -5
-3 -10 -2 -10 3 0 12 -371 73 -457 75 -18 0 -33 4 -33 9 0 8 42 13 88 10 12 0
22 4 22 11 0 8 3 8 11 0 12 -12 49 -6 49 9 0 6 7 8 15 4 18 -7 20 5 3 22 -9 9
-8 12 5 12 10 0 17 8 17 20 0 23 -18 23 -38 0 -11 -13 -12 -12 -7 6 5 19 2 20
-97 16 -57 -2 -108 -8 -115 -14 -7 -5 -16 -7 -20 -5 -9 6 -108 -25 -120 -37
-3 -3 -12 -6 -19 -6 -7 0 -25 -5 -41 -12 -17 -7 -94 -12 -193 -13 -91 -1 -174
-5 -185 -8 -32 -10 -51 7 -38 35 6 13 16 39 23 58 6 19 18 47 26 63 9 15 12
27 8 27 -3 0 0 10 8 23 8 12 21 40 28 62 14 42 76 145 88 145 4 0 23 15 43 33
19 17 46 40 60 49 67 49 176 130 194 146 24 20 89 22 216 5 111 -15 336 -9
464 11 54 9 117 19 140 22 22 2 87 18 145 34 58 15 121 32 140 35 19 4 44 13
55 20 11 7 36 16 55 20 27 6 120 45 193 83 4 2 4 -3 1 -12 -3 -9 -12 -16 -19
-16 -7 0 -15 -4 -17 -9 -1 -6 -30 -39 -63 -74 -33 -35 -69 -76 -80 -91 -11
-15 -28 -36 -37 -47 -10 -10 -18 -23 -18 -28 0 -5 -3 -11 -7 -13 -12 -5 -53
-66 -53 -78 0 -5 -4 -10 -9 -10 -9 0 -19 -30 -28 -82 -5 -31 29 -68 63 -68 60
0 299 145 267 162 -4 3 -2 3 6 1 11 -3 148 130 220 214 66 77 114 139 127 165
15 29 17 29 77 24 34 -3 105 -16 157 -27z m-2545 -448 c0 -72 -5 -135 -11
-142 -12 -15 -66 -164 -69 -189 -1 -8 -9 -31 -17 -50 -15 -34 -15 -34 -11 47
1 45 7 93 13 107 6 17 6 26 -3 30 -9 3 -9 7 0 13 6 4 14 26 18 48 4 22 11 45
14 50 4 6 6 21 5 35 -1 14 3 28 8 31 6 4 10 23 11 43 1 20 4 36 8 36 4 0 10
16 13 35 14 71 22 32 21 -94z m4412 67 c-3 -8 -6 -5 -6 6 -1 11 2 17 5 13 3
-3 4 -12 1 -19z m-136 -166 c1 -64 6 -102 12 -102 7 0 7 -4 -1 -12 -16 -16
-23 -7 -34 44 -21 99 -21 135 -2 155 11 11 20 19 21 18 1 -1 3 -47 4 -103z
m-3556 -352 c-3 -5 -11 -10 -16 -10 -6 0 -7 5 -4 10 3 6 11 10 16 10 6 0 7 -4
4 -10z m-416 -53 l36 5 -41 -38 c-73 -68 -96 -109 -111 -196 -3 -22 -1 -27 11
-22 9 3 16 10 16 15 0 16 72 103 99 121 46 31 63 43 75 53 6 6 27 17 46 25 19
8 38 17 41 22 6 9 41 11 79 4 14 -2 46 -5 73 -5 26 -1 47 -5 47 -11 0 -5 -6
-10 -12 -10 -37 1 -154 -48 -187 -77 -99 -90 -99 -91 -140 -183 -21 -49 -28
-113 -16 -145 25 -66 45 -103 68 -127 14 -15 31 -36 39 -46 27 -39 178 -122
220 -122 13 0 37 -4 54 -9 17 -5 66 -5 109 -1 62 6 83 12 96 28 10 13 20 17
26 11 10 -10 113 37 113 52 0 5 7 9 15 9 8 0 15 3 15 8 0 4 21 30 45 57 25 28
45 55 45 60 0 6 7 22 14 37 15 28 20 55 16 73 -7 24 -4 51 4 57 6 4 6 16 -1
31 -10 22 -9 24 13 19 19 -3 23 -1 18 12 -3 9 -14 16 -24 16 -11 0 -50 31 -87
68 -52 51 -92 79 -163 115 l-95 47 50 -6 c28 -3 75 -10 105 -16 30 -5 71 -11
90 -14 66 -7 115 -15 130 -21 8 -4 22 -5 30 -4 9 1 11 -1 5 -6 -6 -5 -11 -84
-14 -187 -2 -142 0 -180 10 -187 11 -7 9 -9 -6 -9 -17 0 -17 -2 -5 -10 8 -5
10 -10 4 -10 -7 0 -14 -18 -16 -40 -2 -22 1 -40 5 -40 5 0 4 -7 -3 -15 -8 -9
-8 -15 -2 -15 7 0 5 -10 -3 -27 -8 -16 -16 -39 -18 -53 -3 -14 -10 -37 -16
-52 -8 -21 -7 -28 1 -28 7 0 4 -6 -7 -13 -10 -8 -15 -19 -11 -25 7 -12 -76
-72 -99 -72 -5 0 -26 -9 -46 -19 -20 -11 -67 -27 -105 -36 -76 -19 -130 -41
-156 -63 -10 -8 -42 -16 -70 -18 -29 -2 -69 -6 -88 -9 -69 -13 -90 -14 -90 -3
0 6 -9 3 -20 -7 -18 -16 -20 -17 -20 -1 0 12 -6 15 -24 10 -78 -19 -463 54
-510 97 -8 8 -31 25 -50 39 -22 16 -33 31 -30 41 2 8 5 60 5 115 1 54 6 101
10 105 5 3 10 23 12 45 9 93 40 272 53 308 11 28 12 41 4 46 -8 5 -5 18 10 43
12 19 22 54 23 76 1 23 5 41 9 41 4 0 8 10 8 23 1 50 22 61 124 61 52 1 98 5
102 9 4 4 12 3 17 -2 5 -5 26 -7 46 -4z m2131 -17 c0 -5 -7 -10 -16 -10 -8 0
-12 5 -9 10 3 6 10 10 16 10 5 0 9 -4 9 -10z m-2567 -19 c-3 -10 0 -22 6 -25
12 -8 15 -46 3 -46 -4 0 -20 -11 -35 -25 -20 -19 -27 -22 -27 -10 0 8 4 15 9
15 13 0 21 53 10 66 -13 16 0 44 21 44 13 0 17 -6 13 -19z m877 9 c0 -5 -4
-10 -10 -10 -5 0 -10 5 -10 10 0 6 5 10 10 10 6 0 10 -4 10 -10z m-1125 -30
c3 -5 1 -10 -4 -10 -6 0 -11 5 -11 10 0 6 2 10 4 10 3 0 8 -4 11 -10z m1275
-60 c85 -36 127 -58 155 -82 5 -5 25 -20 44 -33 l35 -25 -75 -1 c-75 -1 -107
-2 -304 -14 -60 -4 -117 -7 -125 -7 -14 0 -132 -26 -227 -50 -60 -15 -54 -28
10 -22 28 3 59 5 67 6 28 1 175 18 197 23 20 5 22 2 17 -24 -8 -37 8 -66 63
-118 59 -55 117 -73 208 -63 82 8 144 37 191 88 19 21 34 32 34 26 0 -12 -42
-71 -87 -120 -30 -33 -156 -124 -173 -124 -5 0 -30 -7 -56 -16 -39 -13 -63
-14 -149 -6 -111 11 -187 39 -238 87 -15 14 -31 24 -36 21 -5 -3 -11 4 -15 17
-5 18 -8 20 -16 7 -8 -12 -10 -11 -10 6 0 12 -11 37 -24 56 -13 19 -29 57 -36
84 -11 45 -11 53 6 83 34 60 39 67 66 94 15 15 31 32 35 39 10 16 33 30 103
64 78 38 96 42 176 43 61 1 83 -4 164 -39z m980 7 c0 -6 -14 -18 -30 -26 -17
-7 -43 -26 -58 -43 -15 -16 -37 -41 -50 -55 -28 -30 -40 -79 -20 -81 58 -8
198 -22 271 -27 l87 -7 0 -49 c0 -60 47 -140 97 -164 18 -9 35 -20 38 -25 8
-13 132 -13 140 0 4 6 11 8 16 5 5 -4 15 -3 22 2 6 4 14 8 17 9 12 2 45 18 50
23 18 21 50 42 50 34 0 -21 -112 -123 -134 -123 -8 0 -16 -3 -18 -7 -8 -20
-169 -83 -214 -85 -77 -3 -174 12 -215 32 -24 12 -54 28 -66 34 -13 6 -23 17
-23 24 0 6 -9 12 -21 12 -11 0 -17 4 -14 10 3 5 -3 20 -14 32 -33 35 -58 90
-66 146 -4 29 -11 52 -16 52 -16 0 2 -101 29 -162 13 -32 28 -58 32 -58 3 0
21 -20 39 -45 18 -25 38 -45 45 -45 8 0 19 -6 25 -14 21 -25 178 -69 219 -61
21 4 46 6 57 6 29 -1 155 40 155 51 0 5 5 6 10 3 6 -3 10 -2 10 4 0 6 6 8 14
5 8 -3 20 3 28 13 7 10 25 25 39 33 47 27 118 118 130 165 6 25 17 45 24 45
22 0 6 91 -27 150 -36 66 -105 140 -130 140 -29 0 -21 18 10 22 17 2 26 8 24
18 -1 10 3 8 15 -6 14 -15 40 -23 106 -33 100 -14 117 -19 117 -35 1 -6 10
-22 20 -35 25 -29 50 -21 50 15 0 26 1 26 48 18 26 -4 62 -8 80 -8 22 0 29 -2
20 -9 -9 -6 -5 -7 11 -4 13 3 39 -2 58 -11 29 -14 35 -14 43 -2 7 12 10 12 16
-3 3 -9 14 -17 24 -17 27 0 31 -23 25 -166 -5 -130 -13 -193 -36 -273 -10 -36
-10 -45 2 -52 11 -7 11 -9 -3 -9 -9 0 -20 -10 -23 -22 -4 -13 -21 -52 -38 -88
-17 -36 -30 -68 -29 -72 1 -5 -5 -8 -13 -8 -8 0 -15 -5 -15 -10 0 -17 -163
-170 -181 -170 -6 0 -8 -4 -5 -8 2 -4 -5 -9 -17 -9 -11 -1 -33 -11 -49 -23
-15 -11 -42 -23 -60 -26 -18 -3 -40 -8 -48 -11 -8 -3 -22 -7 -30 -9 -8 -1 -35
-8 -59 -14 -25 -6 -74 -12 -110 -13 -36 0 -70 -6 -74 -12 -6 -7 -10 -6 -14 3
-3 7 -24 12 -51 13 -102 1 -372 67 -372 90 0 4 -14 12 -32 18 -26 9 -35 8 -51
-6 -19 -18 -20 -17 -7 7 9 16 9 25 2 28 -5 1 -22 14 -37 28 -14 13 -30 24 -36
24 -5 0 -9 6 -9 13 0 7 -15 35 -33 62 -18 28 -34 61 -35 74 0 13 -5 27 -9 30
-4 3 -9 19 -10 35 -1 16 -6 32 -10 35 -13 9 -17 229 -8 349 4 40 1 54 -10 58
-19 8 -20 24 -1 24 9 0 12 7 9 20 -3 11 0 34 6 52 8 22 8 34 1 36 -13 5 -13
39 -1 44 5 2 12 17 16 33 5 20 4 26 -3 16 -5 -7 -12 -9 -15 -4 -10 15 33 32
93 37 30 2 55 5 55 6 0 0 31 2 68 2 37 1 70 5 73 10 8 12 14 10 14 -5z m403
-34 c32 -9 57 -21 57 -25 0 -4 7 -8 15 -8 8 0 15 -4 15 -9 0 -5 8 -12 18 -15
32 -11 105 -92 138 -155 l32 -62 -31 19 c-18 10 -54 24 -82 31 -27 7 -66 16
-85 21 -56 14 -225 41 -256 41 -16 0 -78 1 -139 3 -60 2 -114 1 -120 -2 -18
-11 -35 -11 -28 0 4 8 -8 9 -40 5 -56 -8 -55 5 7 65 46 44 100 72 196 99 78
23 215 19 303 -8z m-2337 -25 c4 -6 2 -14 -4 -16 -7 -2 -12 -13 -12 -25 0 -12
-9 -50 -20 -84 -11 -35 -17 -70 -14 -78 4 -8 2 -15 -3 -15 -6 0 -16 -30 -22
-67 -15 -80 -37 -221 -39 -243 -1 -8 -5 -33 -10 -55 -10 -43 -13 -39 -33 35
-41 155 -44 329 -8 404 10 22 19 46 19 53 0 7 5 13 10 13 6 0 10 6 10 14 0 8
15 19 34 26 18 6 42 20 51 30 21 23 31 25 41 8z m3744 -58 c-24 -15 -6 -20 31
-10 38 12 119 4 164 -15 50 -21 101 -76 142 -153 10 -19 10 -24 -2 -28 -8 -4
-12 -11 -9 -16 5 -7 -12 -8 -52 -2 -104 15 -151 8 -211 -32 -139 -92 -225
-311 -237 -607 -3 -49 -7 -91 -10 -94 -3 -3 -2 -11 1 -16 9 -15 13 -58 5 -53
-8 5 -6 -90 4 -154 4 -25 8 -56 10 -69 5 -42 38 -135 53 -153 9 -10 21 -18 28
-18 7 0 13 -7 13 -15 0 -9 9 -15 25 -15 14 0 25 -5 25 -11 0 -6 9 -8 20 -4 17
5 20 2 20 -23 0 -22 -11 -39 -40 -66 -45 -41 -60 -45 -60 -16 0 30 -20 24 -31
-9 -20 -57 -76 -48 -160 25 -32 27 -58 55 -58 62 -1 7 -12 34 -26 60 -14 26
-25 53 -25 59 0 7 -4 13 -9 13 -6 0 -13 21 -17 48 -3 26 -10 52 -15 57 -19 25
-27 317 -12 463 5 49 5 86 0 89 -5 3 -5 8 0 12 15 10 43 78 43 105 0 14 5 26
10 26 6 0 10 8 10 19 0 10 7 35 15 55 8 20 13 36 10 36 -3 0 2 14 10 30 9 17
13 35 10 40 -3 5 0 12 8 17 7 4 33 43 57 86 43 76 176 227 199 227 15 0 35 19
44 43 3 9 12 17 19 17 9 0 9 -3 -2 -10z m-2390 -290 c0 -5 -4 -10 -10 -10 -5
0 -10 5 -10 10 0 6 5 10 10 10 6 0 10 -4 10 -10z m265 -130 c3 -5 1 -10 -4
-10 -6 0 -11 5 -11 10 0 6 2 10 4 10 3 0 8 -4 11 -10z m1585 -86 c0 -2 -7 -4
-15 -4 -8 0 -15 4 -15 10 0 5 7 7 15 4 8 -4 15 -8 15 -10z m-3470 2 c0 -3 -4
-8 -10 -11 -5 -3 -10 -1 -10 4 0 6 5 11 10 11 6 0 10 -2 10 -4z m13 -53 c6
-29 94 -173 106 -173 3 0 5 -62 4 -137 -2 -76 -3 -164 -3 -195 0 -47 -3 -56
-15 -52 -10 4 -13 13 -10 24 3 10 1 21 -5 25 -5 3 -10 -2 -10 -11 0 -16 -2
-15 -20 4 -11 12 -20 24 -20 27 0 3 -9 26 -20 51 -25 55 -36 111 -45 236 -9
117 1 228 20 228 7 0 15 -12 18 -27z m3317 -254 c0 -5 -4 -9 -10 -9 -5 0 -10
7 -10 16 0 8 5 12 10 9 6 -3 10 -10 10 -16z m-2450 -109 c0 -5 -5 -10 -11 -10
-5 0 -7 5 -4 10 3 6 8 10 11 10 2 0 4 -4 4 -10z m2180 -84 c0 -2 -7 -7 -16
-10 -8 -3 -12 -2 -9 4 6 10 25 14 25 6z m-760 -40 c0 -3 -4 -8 -10 -11 -5 -3
-10 -1 -10 4 0 6 5 11 10 11 6 0 10 -2 10 -4z m-2194 -112 c14 -4 21 -14 22
-32 2 -82 25 -250 37 -280 8 -19 15 -47 15 -61 0 -27 23 -118 40 -156 14 -34
23 -59 27 -80 2 -10 10 -29 18 -42 8 -12 15 -34 15 -48 0 -14 7 -28 15 -31 8
-4 15 -17 15 -29 0 -13 8 -31 18 -41 9 -10 16 -20 16 -23 -3 -13 18 -56 41
-83 14 -16 25 -35 25 -41 0 -7 12 -23 25 -36 14 -12 22 -27 19 -32 -3 -5 6
-20 20 -33 14 -13 26 -28 26 -35 0 -6 3 -11 8 -11 4 0 12 -10 17 -22 6 -13 20
-27 32 -33 12 -5 24 -18 27 -28 2 -11 9 -16 14 -13 6 3 13 -5 16 -19 4 -14 12
-25 19 -25 6 -1 23 -14 37 -30 13 -17 30 -30 37 -30 7 0 13 -6 13 -14 0 -8 15
-25 33 -38 35 -25 51 -37 72 -55 7 -7 18 -13 23 -13 6 0 13 -7 16 -16 5 -13 9
-14 21 -4 12 10 15 9 15 -4 0 -8 11 -18 25 -22 14 -3 22 -10 19 -15 -3 -5 2
-9 10 -9 9 0 16 -5 16 -11 0 -7 10 -9 25 -7 17 4 25 1 25 -8 0 -8 8 -14 17
-14 9 0 34 -12 55 -26 25 -18 46 -25 63 -22 19 4 25 1 25 -13 0 -22 4 -23 31
-9 15 9 19 7 19 -5 0 -12 6 -15 20 -10 16 5 20 2 20 -14 0 -12 -6 -21 -13 -21
-42 0 -265 -135 -322 -195 -82 -87 -133 -190 -134 -272 -1 -18 -5 -33 -9 -33
-5 0 -31 -19 -59 -42 -28 -24 -61 -50 -74 -58 -41 -26 -284 -276 -355 -365
-21 -27 -45 -56 -52 -64 -8 -8 -25 -33 -39 -55 -15 -22 -32 -47 -40 -54 -7 -7
-13 -18 -13 -24 0 -7 -5 -6 -14 1 -8 7 -14 20 -14 29 1 9 -6 42 -15 72 -9 30
-18 68 -21 85 -3 16 -10 31 -16 33 -5 2 -10 12 -10 23 0 10 -3 19 -7 19 -5 0
-8 17 -9 37 0 20 -6 39 -12 41 -7 2 -12 15 -12 28 0 13 -4 24 -10 24 -5 0 -7
7 -4 15 4 8 1 21 -5 29 -6 7 -8 15 -5 19 9 9 -6 68 -16 62 -4 -3 -6 4 -3 15 3
11 1 20 -5 20 -6 0 -10 20 -10 45 1 25 -5 51 -12 58 -10 10 -11 8 -6 -10 10
-33 -9 -36 -21 -3 -8 22 -8 29 0 27 22 -4 20 71 -3 112 -17 30 -20 43 -11 58
7 13 7 32 1 54 -5 19 -12 72 -15 118 -3 47 -10 88 -16 92 -6 4 -9 11 -5 17 3
6 2 13 -4 17 -5 3 -10 11 -10 16 0 6 5 7 11 3 7 -4 10 -1 7 7 -3 8 -11 13 -17
11 -6 -1 -11 2 -11 8 0 5 7 10 15 10 12 0 15 11 13 45 0 25 -5 45 -9 45 -5 0
-4 12 1 26 6 14 7 31 3 37 -9 15 -10 56 -1 51 4 -3 8 -1 8 5 0 5 -4 12 -10 16
-5 3 -6 15 -1 28 6 15 4 26 -5 35 -12 11 -11 17 3 38 13 20 14 27 4 34 -11 6
-11 9 0 14 11 5 11 7 2 12 -7 3 -13 10 -13 15 0 6 5 7 10 4 6 -3 10 0 10 9 0
8 -6 16 -12 18 -9 3 -8 10 5 23 10 9 16 24 13 31 -3 8 -9 21 -12 29 -3 8 -1
15 5 15 6 0 11 11 11 25 0 14 -4 25 -10 25 -14 0 -13 37 1 42 6 2 13 24 16 48
9 97 11 109 19 121 5 9 2 10 -9 6 -20 -7 -23 8 -4 17 10 5 10 7 0 12 -18 8
-16 25 2 18 9 -4 15 0 15 10 0 9 -5 16 -11 16 -6 0 -7 5 -2 13 11 17 15 38 16
70 0 15 4 27 10 27 5 0 7 7 3 15 -3 8 1 36 9 61 10 34 11 53 4 67 -8 14 -8 17
0 13 7 -5 11 6 11 33 0 22 5 42 13 44 9 4 9 7 -1 15 -11 7 -11 12 2 24 8 9 16
33 18 54 2 22 8 45 12 53 5 8 3 17 -5 22 -12 8 -12 11 1 19 8 5 11 10 5 10 -5
0 -4 4 2 8 18 11 29 72 13 72 -7 0 -10 -6 -7 -13 2 -6 -2 -18 -10 -26 -13 -12
-14 -11 -8 10 4 13 16 32 28 43 12 10 23 32 25 50 2 17 4 39 5 49 1 18 9 20
43 11z m-186 -668 c0 -3 -4 -8 -10 -11 -5 -3 -10 -1 -10 4 0 6 5 11 10 11 6 0
10 -2 10 -4z m3990 -80 c0 -3 -4 -8 -10 -11 -5 -3 -10 -1 -10 4 0 6 5 11 10
11 6 0 10 -2 10 -4z m20 -159 c0 -5 -4 -5 -10 -2 -5 3 -10 14 -10 23 0 15 2
15 10 2 5 -8 10 -19 10 -23z m-4030 -47 c0 -5 -5 -10 -11 -10 -5 0 -7 5 -4 10
3 6 8 10 11 10 2 0 4 -4 4 -10z m3355 -172 c-6 -63 -6 -725 0 -784 6 -57 8
-68 20 -76 6 -5 5 -8 -2 -8 -21 0 -15 -54 6 -67 35 -22 40 3 36 160 -3 90 -1
147 5 147 6 0 10 -6 10 -13 0 -7 11 -35 24 -63 13 -27 32 -70 41 -96 17 -46
17 -49 -1 -75 -48 -74 -209 -213 -332 -287 -35 -21 -91 -52 -125 -68 -34 -17
-87 -42 -117 -58 -30 -15 -82 -35 -115 -45 -33 -9 -68 -21 -77 -26 -10 -5 -27
-9 -39 -9 -11 0 -28 -4 -38 -9 -10 -6 -37 -13 -62 -16 -56 -7 -273 -7 -303 1
-18 4 -28 -1 -41 -18 -17 -22 -17 -22 -12 -2 4 18 -2 24 -37 34 -22 7 -74 28
-114 47 -40 18 -78 31 -83 27 -5 -3 -8 -1 -7 4 2 5 -31 42 -72 83 -81 80 -103
105 -113 133 -4 9 -12 14 -18 10 -7 -4 -9 0 -5 14 5 14 1 24 -9 30 -9 5 -16
12 -15 16 2 10 -40 95 -51 102 -5 3 -9 20 -9 39 0 25 8 40 36 64 20 18 32 36
28 43 -4 7 -3 8 5 4 7 -5 32 13 65 48 l53 55 6 -42 c3 -23 9 -85 13 -137 7
-103 14 -120 50 -120 39 0 41 32 14 280 -14 127 -16 120 33 120 24 0 48 5 55
12 9 9 12 8 12 -5 0 -15 3 -16 21 -7 11 6 25 9 32 7 7 -2 23 0 35 5 13 4 43 9
65 10 23 0 44 5 47 9 5 8 42 15 128 26 24 3 46 11 49 19 3 8 17 14 32 14 15 0
36 6 47 14 11 8 34 16 52 19 18 3 38 10 45 15 7 5 25 12 42 16 16 4 32 11 35
14 3 4 23 16 45 27 22 11 46 27 53 35 8 8 11 9 7 3 -10 -20 10 -15 37 10 30
26 85 57 102 57 7 0 31 14 52 31 22 17 50 36 64 41 15 6 20 12 13 15 -7 3 -13
9 -13 15 0 6 6 5 15 -2 13 -11 19 -8 40 14 13 14 31 26 40 26 8 0 14 5 13 12
-2 6 6 14 17 17 30 9 96 62 89 72 -3 5 2 9 11 9 8 0 18 7 21 15 4 8 12 15 19
15 7 0 15 7 19 15 11 29 15 14 11 -37z m715 0 c0 -13 -23 -5 -28 10 -2 7 2 10
12 6 9 -3 16 -11 16 -16z m70 -212 c0 -3 -4 -8 -10 -11 -5 -3 -10 -1 -10 4 0
6 5 11 10 11 6 0 10 -2 10 -4z m-4160 -386 c0 -5 -2 -10 -4 -10 -3 0 -8 5 -11
10 -3 6 -1 10 4 10 6 0 11 -4 11 -10z m20 -65 c0 -8 -4 -15 -10 -15 -5 0 -10
7 -10 15 0 8 5 15 10 15 6 0 10 -7 10 -15z m4280 -200 c0 -8 -2 -15 -4 -15 -2
0 -6 7 -10 15 -3 8 -1 15 4 15 6 0 10 -7 10 -15z m6 -62 c5 -21 9 -45 10 -53
1 -8 4 -24 9 -35 15 -43 15 -44 -18 -33 -18 6 -44 12 -60 15 -15 3 -30 9 -32
14 -3 4 11 29 30 55 20 26 34 53 31 60 -3 8 1 14 8 14 8 0 17 -17 22 -37z
m-4256 7 c0 -5 -2 -10 -4 -10 -3 0 -8 5 -11 10 -3 6 -1 10 4 10 6 0 11 -4 11
-10z m4356 -354 c0 -14 -5 -21 -9 -17 -4 4 -5 15 -1 24 9 24 12 21 10 -7z
m-3095 -169 c-10 -9 -11 -8 -5 6 3 10 9 15 12 12 3 -3 0 -11 -7 -18z m-1061
-247 c0 -5 -7 -7 -15 -4 -8 4 -15 8 -15 10 0 2 7 4 15 4 8 0 15 -4 15 -10z
m4086 -329 c0 -11 -4 -17 -8 -15 -4 3 -8 12 -8 20 0 8 4 14 8 14 4 0 8 -9 8
-19z m38 -26 c-6 -16 -24 -21 -24 -7 0 11 11 22 21 22 5 0 6 -7 3 -15z m-4033
-142 c-12 -20 -14 -14 -5 12 4 9 9 14 11 11 3 -2 0 -13 -6 -23z m24 -113 c3
-6 -1 -7 -9 -4 -18 7 -21 14 -7 14 6 0 13 -4 16 -10z m15 -30 c0 -5 -5 -10
-11 -10 -5 0 -7 5 -4 10 3 6 8 10 11 10 2 0 4 -4 4 -10z m980 -145 c0 -8 -2
-15 -4 -15 -2 0 -6 7 -10 15 -3 8 -1 15 4 15 6 0 10 -7 10 -15z m2884 -20 c-4
-8 -10 -15 -15 -15 -4 0 -6 7 -3 15 4 8 10 15 15 15 4 0 6 -7 3 -15z m-2914
-116 c0 -6 -4 -7 -10 -4 -5 3 -10 11 -10 16 0 6 5 7 10 4 6 -3 10 -11 10 -16z
m2830 -303 c0 -2 -7 -7 -16 -10 -8 -3 -12 -2 -9 4 6 10 25 14 25 6z m-3775
-26 c3 -5 1 -10 -4 -10 -6 0 -11 5 -11 10 0 6 2 10 4 10 3 0 8 -4 11 -10z
m665 -430 c0 -5 -5 -10 -11 -10 -5 0 -7 5 -4 10 3 6 8 10 11 10 2 0 4 -4 4
-10z"/>
<path d="M4020 4680 c0 -5 5 -10 11 -10 5 0 7 5 4 10 -3 6 -8 10 -11 10 -2 0
-4 -4 -4 -10z"/>
<path d="M4705 4655 c17 -7 32 -11 35 -9 7 8 -24 24 -45 23 -15 0 -13 -4 10
-14z"/>
<path d="M5000 4660 c0 -5 5 -10 10 -10 6 0 10 5 10 10 0 6 -4 10 -10 10 -5 0
-10 -4 -10 -10z"/>
<path d="M4750 4641 c0 -5 7 -12 16 -15 24 -9 28 -7 14 9 -14 17 -30 20 -30 6z"/>
<path d="M5030 4643 c0 -8 31 -25 78 -44 15 -6 21 -5 17 1 -3 6 -12 10 -19 10
-7 0 -21 9 -31 20 -18 20 -45 27 -45 13z"/>
<path d="M5156 4577 c3 -10 9 -15 12 -12 3 3 0 11 -7 18 -10 9 -11 8 -5 -6z"/>
<path d="M4900 4572 c0 -12 19 -26 26 -19 2 2 -2 10 -11 17 -9 8 -15 8 -15 2z"/>
<path d="M3985 4540 c4 -6 11 -8 16 -5 14 9 11 15 -7 15 -8 0 -12 -5 -9 -10z"/>
<path d="M3532 4495 c-65 -59 -136 -144 -128 -153 7 -6 86 72 86 84 0 8 94 94
102 94 5 0 8 5 8 10 0 19 -18 10 -68 -35z"/>
<path d="M3701 4489 c-24 -22 -41 -43 -37 -46 3 -3 24 13 47 36 54 54 47 61
-10 10z"/>
<path d="M3915 4490 c-21 -22 -35 -40 -30 -40 10 1 85 67 85 75 0 14 -20 1
-55 -35z"/>
<path d="M4701 4449 c-24 -11 -41 -22 -38 -25 6 -6 97 32 97 40 0 9 -12 6 -59
-15z"/>
<path d="M3625 4419 c-11 -17 1 -21 15 -4 8 9 8 15 2 15 -6 0 -14 -5 -17 -11z"/>
<path d="M4602 4423 c-6 -2 -9 -10 -6 -15 4 -7 2 -8 -4 -4 -11 7 -89 -8 -127
-24 -11 -5 -69 -22 -130 -40 -60 -17 -123 -35 -140 -40 -16 -5 -68 -16 -115
-24 -47 -9 -107 -21 -135 -26 -27 -5 -123 -10 -213 -11 -172 -2 -197 -12 -76
-30 97 -15 101 -17 79 -33 -15 -11 -17 -21 -11 -57 9 -56 38 -103 82 -129 18
-12 34 -26 34 -31 0 -5 6 -9 13 -9 6 0 24 -6 39 -14 45 -24 132 -37 235 -37
54 0 108 2 120 4 51 8 28 15 -69 21 -182 13 -282 46 -359 116 -50 47 -51 49
-48 130 1 25 2 25 98 27 62 1 136 10 210 27 62 14 117 24 121 21 5 -3 11 -1
15 5 3 5 14 10 24 10 26 0 254 77 320 108 31 14 62 26 69 25 6 0 12 8 12 18 0
19 -12 23 -38 12z"/>
<path d="M3830 4399 c0 -5 5 -7 10 -4 6 3 10 8 10 11 0 2 -4 4 -10 4 -5 0 -10
-5 -10 -11z"/>
<path d="M3376 4314 c-9 -24 -7 -27 9 -10 17 17 19 26 6 26 -5 0 -12 -7 -15
-16z"/>
<path d="M3347 4266 c-4 -10 -1 -13 9 -9 7 3 14 9 14 14 0 14 -17 10 -23 -5z"/>
<path d="M3480 4000 c0 -5 5 -10 10 -10 6 0 10 5 10 10 0 6 -4 10 -10 10 -5 0
-10 -4 -10 -10z"/>
<path d="M3471 3934 c0 -11 3 -14 6 -6 3 7 2 16 -1 19 -3 4 -6 -2 -5 -13z"/>
<path d="M5367 3930 c6 -22 23 -38 23 -21 0 17 -12 41 -20 41 -5 0 -6 -9 -3
-20z"/>
<path d="M4297 3923 c-11 -10 -8 -25 3 -18 5 3 29 10 52 14 l43 9 -46 1 c-25
1 -49 -2 -52 -6z"/>
<path d="M5180 3885 c0 -10 45 -90 52 -93 4 -2 8 -11 8 -19 0 -9 3 -13 7 -10
8 8 -27 87 -39 87 -4 0 -8 9 -8 20 0 11 -4 20 -10 20 -5 0 -10 -2 -10 -5z"/>
<path d="M5400 3883 c1 -11 60 -88 60 -79 0 14 -43 86 -52 86 -4 0 -8 -3 -8
-7z"/>
<path d="M3458 3864 c-5 -4 -8 -16 -8 -28 0 -14 3 -17 11 -9 6 6 9 19 7 28 -1
9 -6 13 -10 9z"/>
<path d="M3603 3794 c-7 -23 -13 -54 -13 -70 0 -16 -4 -44 -9 -61 -5 -18 -6
-35 -2 -37 4 -3 6 -20 3 -38 -2 -18 -2 -30 2 -27 8 7 38 226 34 253 -2 15 -6
10 -15 -20z"/>
<path d="M3450 3810 c-8 -26 -7 -41 2 -32 6 6 8 16 5 24 -3 7 -6 11 -7 8z"/>
<path d="M5250 3747 c0 -14 34 -69 37 -61 5 16 -15 64 -27 64 -5 0 -10 -2 -10
-3z"/>
<path d="M3441 3694 c0 -11 3 -14 6 -6 3 7 2 16 -1 19 -3 4 -6 -2 -5 -13z"/>
<path d="M5100 3700 c0 -5 5 -10 10 -10 6 0 10 5 10 10 0 6 -4 10 -10 10 -5 0
-10 -4 -10 -10z"/>
<path d="M3767 3596 c-4 -28 -3 -54 2 -59 11 -11 19 50 11 84 -5 19 -8 13 -13
-25z"/>
<path d="M4119 3555 c-8 -13 -4 -63 4 -72 4 -3 7 -16 7 -29 0 -12 7 -35 15
-50 8 -16 15 -37 15 -46 0 -10 5 -18 10 -18 6 0 10 -9 10 -20 0 -11 5 -20 11
-20 12 0 4 67 -11 85 -4 6 -11 26 -15 45 -4 19 -11 40 -16 46 -5 6 -12 28 -17
50 -4 21 -10 34 -13 29z"/>
<path d="M4290 3545 c0 -24 24 -95 32 -95 14 0 9 38 -7 53 -9 9 -11 17 -4 19
12 4 1 38 -12 38 -5 0 -9 -7 -9 -15z"/>
<path d="M4927 3520 c6 -34 23 -50 23 -22 0 12 -4 22 -9 22 -5 0 -11 6 -14 13
-2 6 -2 1 0 -13z"/>
<path d="M3589 3536 c-10 -11 10 -99 26 -115 22 -23 29 -6 9 24 -10 15 -20 42
-23 62 -3 19 -9 32 -12 29z"/>
<path d="M3966 3487 c4 -23 10 -46 15 -51 5 -6 9 -19 9 -30 0 -22 51 -128 58
-122 2 3 -1 13 -6 23 -5 10 -15 44 -22 76 -7 31 -17 57 -22 57 -5 0 -7 4 -4 9
10 15 -5 69 -20 75 -11 4 -13 -3 -8 -37z"/>
<path d="M3760 3490 c0 -11 5 -20 10 -20 6 0 10 9 10 20 0 11 -4 20 -10 20 -5
0 -10 -9 -10 -20z"/>
<path d="M3771 3450 c0 -8 4 -24 9 -35 5 -13 9 -14 9 -5 0 8 -4 24 -9 35 -5
13 -9 14 -9 5z"/>
<path d="M3786 3377 c3 -10 9 -15 12 -12 3 3 0 11 -7 18 -10 9 -11 8 -5 -6z"/>
<path d="M3804 3327 c2 -19 23 -43 30 -36 3 2 -4 15 -14 29 -14 19 -18 21 -16
7z"/>
<path d="M4460 5794 c0 -14 4 -23 9 -19 11 6 10 45 -1 45 -4 0 -8 -12 -8 -26z"/>
<path d="M4455 5560 c-8 -13 21 -48 31 -38 3 4 -1 16 -9 28 -10 15 -17 18 -22
10z"/>
<path d="M4490 5501 c0 -11 87 -128 101 -137 6 -3 13 -3 17 1 4 4 1 10 -5 12
-7 3 -13 10 -13 16 0 7 -14 26 -30 44 -17 18 -30 37 -30 42 0 6 -9 15 -20 21
-11 6 -20 7 -20 1z"/>
<path d="M4610 5345 c0 -4 14 -21 32 -38 l32 -32 -21 35 c-20 32 -43 51 -43
35z"/>
<path d="M4001 2656 c-12 -14 -12 -16 4 -9 15 5 17 3 12 -10 -18 -45 -19 -51
-2 -29 12 17 15 29 8 44 -8 18 -10 19 -22 4z"/>
<path d="M4016 2586 c-13 -20 -13 -24 -2 -20 8 3 17 13 20 21 10 26 0 25 -18
-1z"/>
<path d="M3900 2548 c-27 -42 -39 -68 -31 -68 4 0 14 12 22 28 8 15 18 30 23
33 5 4 7 12 5 18 -2 6 -11 1 -19 -11z"/>
<path d="M3900 2489 c0 -5 5 -7 10 -4 6 3 10 8 10 11 0 2 -4 4 -10 4 -5 0 -10
-5 -10 -11z"/>
<path d="M3800 2455 c0 -8 -5 -15 -10 -15 -6 0 -5 -6 2 -14 7 -8 17 -12 22 -9
4 3 2 10 -5 15 -10 7 -9 9 7 5 12 -2 21 1 21 8 0 8 -7 11 -15 7 -10 -3 -13 -1
-8 6 4 7 2 12 -3 12 -6 0 -11 -7 -11 -15z"/>
<path d="M4110 2451 c0 -5 5 -13 10 -16 6 -3 10 -2 10 4 0 5 -4 13 -10 16 -5
3 -10 2 -10 -4z"/>
<path d="M4088 2423 c7 -3 16 -2 19 1 4 3 -2 6 -13 5 -11 0 -14 -3 -6 -6z"/>
<path d="M4070 2400 c-9 -6 -10 -10 -3 -10 6 0 15 5 18 10 8 12 4 12 -15 0z"/>
<path d="M3983 2393 c-7 -2 -13 -9 -13 -15 0 -7 4 -7 13 0 6 5 21 12 32 15
l20 5 -20 0 c-11 0 -26 -2 -32 -5z"/>
<path d="M3971 2351 c-8 -6 -9 -11 -3 -15 6 -3 14 -1 17 5 9 14 2 20 -14 10z"/>
<path d="M3921 2334 c0 -11 3 -14 6 -6 3 7 2 16 -1 19 -3 4 -6 -2 -5 -13z"/>
<path d="M3890 2289 c0 -5 5 -7 10 -4 6 3 10 8 10 11 0 2 -4 4 -10 4 -5 0 -10
-5 -10 -11z"/>
<path d="M3730 2269 c0 -5 5 -7 10 -4 6 3 10 8 10 11 0 2 -4 4 -10 4 -5 0 -10
-5 -10 -11z"/>
<path d="M3695 2239 c-4 -11 -4 -23 -1 -26 3 -4 6 2 7 13 1 15 3 13 9 -6 8
-24 8 -23 9 8 1 36 -14 43 -24 11z"/>
<path d="M3737 2239 c7 -7 15 -10 18 -7 3 3 -2 9 -12 12 -14 6 -15 5 -6 -5z"/>
<path d="M3742 2180 c0 -19 2 -27 5 -17 2 9 2 25 0 35 -3 9 -5 1 -5 -18z"/>
<path d="M3687 2154 c-19 -26 -12 -31 15 -11 9 7 14 18 10 24 -4 7 -14 2 -25
-13z"/>
<path d="M3670 2109 c0 -5 5 -7 10 -4 6 3 10 8 10 11 0 2 -4 4 -10 4 -5 0 -10
-5 -10 -11z"/>
<path d="M3696 2031 c-4 -7 -5 -15 -2 -18 9 -9 19 4 14 18 -4 11 -6 11 -12 0z"/>
<path d="M3664 1987 c-17 -20 -3 -46 21 -36 17 6 17 8 3 8 -10 1 -18 6 -18 12
0 5 4 7 10 4 6 -3 7 1 4 9 -7 19 -6 19 -20 3z"/>
<path d="M4710 1937 c-45 -11 -49 -20 -44 -84 2 -29 0 -63 -5 -77 -9 -22 -15
-24 -75 -24 -35 0 -76 6 -89 13 -44 23 -55 5 -49 -81 l5 -77 -119 5 c-222 10
-412 -28 -470 -95 -44 -49 -66 -138 -63 -250 3 -132 62 -274 148 -357 25 -24
120 -90 130 -90 4 0 24 -11 43 -24 19 -13 58 -29 87 -37 28 -7 51 -16 51 -20
0 -6 31 -14 105 -27 17 -3 86 -6 155 -7 125 -3 242 13 305 40 17 7 54 21 83
30 28 10 52 22 52 27 0 5 14 14 30 19 17 6 30 15 30 21 0 5 5 6 10 3 6 -3 10
1 10 9 0 9 4 15 8 13 12 -3 122 93 122 107 0 7 10 22 23 34 32 31 78 126 112
232 10 30 26 79 35 108 10 28 14 52 10 52 -4 0 15 24 41 53 27 28 49 55 49 58
0 3 13 20 29 38 45 51 82 191 50 191 -5 0 -8 4 -4 10 7 12 -41 44 -55 35 -5
-3 -10 -2 -10 3 0 16 -70 -4 -94 -27 l-23 -21 -11 38 c-6 21 -21 47 -32 59
-11 12 -20 27 -20 32 0 19 -65 33 -93 20 -28 -13 -56 -70 -57 -116 -2 -54 9
-178 19 -210 13 -45 17 -45 -131 -23 l-88 12 2 117 c1 64 -2 122 -6 130 -6 9
-5 12 2 7 6 -4 11 1 11 11 0 10 3 44 7 76 l7 58 -99 -2 c-54 -2 -115 -7 -134
-12z m194 -28 c-3 -6 -8 -36 -9 -67 -2 -32 -4 -57 -5 -57 -1 0 -4 -11 -6 -24
-2 -14 -5 -26 -7 -27 -1 -1 -37 3 -80 9 l-77 11 -1 43 c-1 24 -1 52 -1 63 0
11 0 25 1 30 1 6 33 10 74 10 39 0 79 5 87 10 20 13 33 13 24 -1z m327 -72
c29 -22 59 -86 59 -125 0 -67 35 -82 64 -27 10 19 22 32 26 30 5 -3 10 2 14
10 3 10 19 15 47 15 l42 0 -7 -52 c-4 -29 -8 -59 -8 -65 -1 -7 -6 -13 -13 -13
-6 0 -19 -14 -29 -30 -9 -17 -29 -43 -43 -58 -54 -58 -82 -112 -121 -236 -40
-122 -89 -222 -118 -239 -8 -4 -14 -14 -14 -22 0 -8 -9 -19 -19 -25 -11 -5
-23 -19 -26 -30 -3 -11 -12 -20 -18 -20 -7 0 -33 -20 -59 -45 -27 -25 -55 -45
-63 -45 -8 0 -15 -4 -15 -10 0 -5 -7 -10 -15 -10 -9 0 -30 -7 -48 -17 -36 -18
-68 -27 -177 -50 -84 -17 -314 -13 -363 6 -15 6 -31 10 -35 9 -7 -1 -95 35
-124 52 -10 5 -24 10 -32 10 -7 0 -19 7 -26 15 -7 8 -16 12 -20 10 -5 -3 -21
6 -37 20 -48 43 -93 90 -93 96 0 9 37 20 80 23 64 6 141 23 153 35 6 6 22 11
35 11 22 0 23 2 11 17 -12 15 -12 16 1 8 12 -6 13 -5 3 5 -11 11 -17 11 -38 0
-14 -7 -25 -20 -25 -29 0 -12 -2 -13 -9 -3 -8 13 -40 11 -208 -14 -39 -6 -43
-4 -54 20 -7 14 -16 26 -21 26 -5 0 -7 4 -3 9 3 5 -1 27 -8 48 -7 21 -13 54
-12 73 0 19 -3 37 -7 40 -3 3 -2 30 4 60 7 38 7 55 -1 58 -15 5 -14 23 0 19 7
-1 15 10 19 24 21 72 62 99 195 127 68 14 124 18 230 16 175 -2 319 -12 366
-25 20 -5 47 -9 60 -8 13 0 51 -2 84 -6 33 -4 78 -8 100 -9 22 -2 67 -6 100
-11 107 -15 175 -13 177 5 0 8 2 22 3 30 1 8 -1 19 -4 25 -2 5 -6 18 -7 30 -1
11 -7 46 -13 78 -11 61 -7 105 16 150 15 30 21 32 44 14z m-626 -132 c25 -1
47 -4 49 -6 4 -3 9 -95 7 -109 -1 -3 -38 -1 -83 5 l-83 10 -3 58 -3 58 35 -7
c20 -3 56 -7 81 -9z m183 -16 c13 -5 36 -9 52 -9 33 0 40 -14 40 -76 l0 -44
-57 7 c-109 12 -108 11 -108 81 0 67 1 67 73 41z"/>
<path d="M4450 1353 c-70 -23 -117 -68 -111 -105 0 -5 -4 -8 -10 -8 -19 0 -4
-84 19 -118 42 -58 137 -79 208 -46 45 22 94 97 93 143 -1 51 -8 65 -59 105
-44 35 -92 45 -140 29z m100 -21 c0 -4 13 -15 29 -25 43 -25 57 -76 35 -122
-34 -73 -125 -106 -194 -70 -17 9 -30 12 -30 8 -1 -5 -7 6 -15 24 -15 35 -10
99 9 125 21 28 99 68 134 68 17 0 32 -4 32 -8z"/>
<path d="M4502 1229 c-26 -27 -19 -46 16 -45 31 1 42 35 18 55 -11 10 -18 8
-34 -10z"/>
<path d="M3651 1910 c-9 -5 -4 -7 13 -7 29 0 32 2 13 10 -8 3 -20 2 -26 -3z"/>
<path d="M3650 1750 c0 -6 7 -10 15 -10 8 0 15 2 15 4 0 2 -7 6 -15 10 -8 3
-15 1 -15 -4z"/>
<path d="M5442 858 c-14 -14 -16 -44 -3 -52 5 -4 7 3 4 15 -4 12 0 25 8 29 7
5 11 11 8 14 -3 3 -11 0 -17 -6z"/>
<path d="M5456 754 c-5 -14 -4 -15 9 -4 17 14 19 20 6 20 -5 0 -12 -7 -15 -16z"/>
<path d="M5430 679 c0 -5 5 -7 10 -4 6 3 10 8 10 11 0 2 -4 4 -10 4 -5 0 -10
-5 -10 -11z"/>
<path d="M5415 640 c3 -5 8 -10 11 -10 2 0 4 5 4 10 0 6 -5 10 -11 10 -5 0 -7
-4 -4 -10z"/>
<path d="M5446 625 c-3 -9 -2 -13 4 -10 6 3 10 1 10 -5 0 -6 -7 -13 -15 -16
-8 -4 -15 -11 -15 -17 0 -5 9 -2 19 7 12 11 25 15 33 10 7 -4 4 3 -7 17 -11
13 -20 25 -21 27 -1 2 -4 -4 -8 -13z"/>
<path d="M5456 572 c-2 -4 4 -8 14 -8 10 0 16 4 14 8 -3 4 -9 8 -14 8 -5 0
-11 -4 -14 -8z"/>
<path d="M5420 541 c0 -10 39 -11 45 -2 2 5 -7 9 -20 9 -14 0 -25 -3 -25 -7z"/>
<path d="M5460 515 c-7 -8 -10 -18 -6 -22 3 -3 6 -1 6 5 0 7 5 12 11 12 6 0 8
-7 4 -17 -5 -14 -3 -15 5 -6 8 7 9 17 3 28 -9 15 -11 15 -23 0z"/>
<path d="M5400 495 c-19 -23 -8 -25 14 -4 11 11 15 19 9 19 -6 0 -16 -7 -23
-15z"/>
<path d="M5420 475 c-9 -11 -9 -17 3 -29 12 -13 14 -11 13 15 -1 34 0 33 -16
14z"/>
<path d="M5391 434 c0 -11 3 -14 6 -6 3 7 2 16 -1 19 -3 4 -6 -2 -5 -13z"/>
<path d="M5450 425 c-7 -9 -8 -15 -2 -15 5 0 12 7 16 15 3 8 4 15 2 15 -2 0
-9 -7 -16 -15z"/>
<path d="M5420 411 c0 -6 4 -13 10 -16 6 -3 7 1 4 9 -7 18 -14 21 -14 7z"/>
<path d="M5477 413 c-3 -5 -1 -17 4 -28 7 -17 8 -17 8 8 1 27 -4 34 -12 20z"/>
<path d="M5415 370 c3 -5 8 -10 11 -10 2 0 4 5 4 10 0 6 -5 10 -11 10 -5 0 -7
-4 -4 -10z"/>
<path d="M5441 364 c0 -11 3 -14 6 -6 3 7 2 16 -1 19 -3 4 -6 -2 -5 -13z"/>
<path d="M5486 305 c-9 -26 -7 -32 5 -12 6 10 9 21 6 23 -2 3 -7 -2 -11 -11z"/>
<path d="M5410 280 c-13 -8 -12 -10 3 -10 9 0 17 5 17 10 0 12 -1 12 -20 0z"/>
<path d="M5462 270 c0 -14 2 -19 5 -12 2 6 2 18 0 25 -3 6 -5 1 -5 -13z"/>
<path d="M5435 211 c-3 -5 -1 -12 5 -16 5 -3 10 1 10 9 0 18 -6 21 -15 7z"/>
<path d="M5486 175 c4 -8 8 -15 10 -15 2 0 4 7 4 15 0 8 -4 15 -10 15 -5 0 -7
-7 -4 -15z"/>
<path d="M5421 150 c0 -8 4 -24 9 -35 5 -13 9 -14 9 -5 0 8 -4 24 -9 35 -5 13
-9 14 -9 5z"/>
<path d="M5387 133 c-4 -3 -7 -11 -7 -17 0 -6 5 -5 12 2 6 6 9 14 7 17 -3 3
-9 2 -12 -2z"/>
<path d="M5450 104 c0 -8 5 -12 10 -9 6 3 10 10 10 16 0 5 -4 9 -10 9 -5 0
-10 -7 -10 -16z"/>
<path d="M5405 100 c-3 -5 -13 -7 -23 -4 -11 4 -13 3 -6 -3 7 -4 14 -17 17
-28 4 -17 5 -17 6 4 1 16 6 21 15 18 10 -4 13 -1 9 9 -6 16 -10 17 -18 4z"/>
<path d="M5480 80 c0 -5 5 -10 11 -10 5 0 7 5 4 10 -3 6 -8 10 -11 10 -2 0 -4
-4 -4 -10z"/>
<path d="M5391 14 c0 -11 3 -14 6 -6 3 7 2 16 -1 19 -3 4 -6 -2 -5 -13z"/>
<path d="M5460 20 c0 -5 5 -10 11 -10 5 0 7 5 4 10 -3 6 -8 10 -11 10 -2 0 -4
-4 -4 -10z"/>
</g>
</svg>
